<svg width="104" height="105" viewBox="0 0 104 105" fill="none" xmlns="http://www.w3.org/2000/svg">
<rect y="0.466797" width="104" height="104" rx="24" fill="#535353" fill-opacity="0.2"/>
<path d="M80.584 53.2299C80.584 50.2923 78.1936 47.9019 75.256 47.9019C73.3696 47.9019 71.7136 48.8955 70.7632 50.3787L65.0752 47.9307L67.5952 41.8539C67.9984 41.9547 68.4016 42.0123 68.8192 42.0123C70.1872 42.0123 71.5408 41.4939 72.592 40.4571C74.6656 38.3835 74.6656 34.9995 72.592 32.9259C70.5184 30.8523 67.1344 30.8523 65.0608 32.9259C63.6928 34.2939 63.2464 36.2091 63.6784 37.9659L57.8032 40.4715L55.4704 34.9419C56.968 33.9915 57.976 32.3355 57.976 30.4347C57.976 27.4971 55.5856 25.1067 52.648 25.1067C49.7104 25.1067 47.32 27.4971 47.32 30.4347C47.32 32.3499 48.3424 34.0203 49.8544 34.9563L47.5936 40.4139L41.9488 37.9803C42.3808 36.2235 41.9488 34.2939 40.5664 32.9259C38.4928 30.8523 35.1088 30.8523 33.0352 32.9259C30.9616 34.9995 30.9616 38.3835 33.0352 40.4571C34.072 41.4939 35.44 42.0123 36.808 42.0123C37.2112 42.0123 37.6 41.9547 37.9888 41.8683L40.4224 47.8731L34.4608 50.4075C33.5104 48.9099 31.8544 47.9163 29.968 47.9163C27.0304 47.9163 24.64 50.3067 24.64 53.2443C24.64 56.1819 27.0304 58.5723 29.968 58.5723C31.912 58.5723 33.5824 57.5211 34.5184 55.9803L40.2208 58.2555L38.0032 63.6123C36.2608 63.2235 34.3312 63.6699 33.0352 64.9803C30.9616 67.0539 30.9616 70.4379 33.0352 72.5115C34.072 73.5483 35.44 74.0667 36.808 74.0667C38.176 74.0667 39.5296 73.5483 40.5808 72.5115C41.5888 71.5035 42.136 70.1643 42.136 68.7387C42.136 68.3355 42.0784 67.9467 41.992 67.5579L47.5072 65.3403L49.8976 71.2155C48.3568 72.1515 47.32 73.8219 47.32 75.7515C47.32 78.6891 49.7104 81.0795 52.648 81.0795C55.5856 81.0795 57.976 78.6891 57.976 75.7515C57.976 73.8363 56.9536 72.1803 55.4416 71.2299L57.904 65.2827L63.664 67.5723C63.2896 69.2859 63.7504 71.1579 65.0896 72.4971C66.1264 73.5339 67.4944 74.0523 68.8624 74.0523C70.2304 74.0523 71.584 73.5339 72.6352 72.4971C73.6432 71.4891 74.1904 70.1499 74.1904 68.7243C74.1904 67.2987 73.6432 65.9595 72.6352 64.9515C71.3248 63.6411 69.3808 63.1947 67.624 63.5979L65.32 58.1547L70.7488 55.9659C71.6848 57.5067 73.3696 58.5435 75.2992 58.5435C78.2368 58.5435 80.6272 56.1531 80.6272 53.2155L80.584 53.2299ZM66.1696 34.0347C67.624 32.5803 70 32.5803 71.4544 34.0347C72.9088 35.4891 72.9088 37.8651 71.4544 39.3195C70.576 40.1979 69.352 40.5435 68.2 40.3563L69.5968 37.0011C69.7264 36.6843 69.6544 36.3099 69.4096 36.0651C69.1648 35.8203 68.7904 35.7483 68.4736 35.8923L65.1328 37.3179C64.9312 36.1659 65.2768 34.9275 66.1696 34.0347ZM66.1696 39.3195C66.0256 39.1755 65.9248 39.0315 65.8096 38.8731L67.2352 38.2683L66.6448 39.6939C66.4864 39.5787 66.328 39.4635 66.1696 39.3051V39.3195ZM64.312 39.5211C64.5136 39.8523 64.7584 40.1691 65.0464 40.4427C65.3488 40.7451 65.68 40.9899 66.0256 41.1915L63.52 47.2395L60.0352 45.7419L58.4512 41.9979L64.3264 39.4923L64.312 39.5211ZM63.0304 57.2331L60.8416 58.1115L62.1088 55.0587L63.0304 57.2331ZM62.0944 50.6523L60.9856 48.0171L62.8576 48.8235L62.0944 50.6523ZM57.76 44.7771L54.8656 43.5387L56.8672 42.6891L57.76 44.7915V44.7771ZM48.8608 30.4059C48.8608 28.3467 50.5456 26.6619 52.6048 26.6619C54.664 26.6619 56.3488 28.3467 56.3488 30.4059C56.3488 31.6443 55.7296 32.7387 54.808 33.4155L53.3968 30.0747C53.2672 29.7579 52.9504 29.5563 52.6048 29.5563C52.2592 29.5563 51.9568 29.7579 51.8272 30.0891L50.4448 33.4443C49.4944 32.7675 48.8752 31.6587 48.8752 30.4203L48.8608 30.4059ZM53.224 34.0779C53.0224 34.1067 52.8064 34.1355 52.5904 34.1355C52.3744 34.1355 52.1872 34.1067 51.9856 34.0779L52.5904 32.6091L53.2096 34.0779H53.224ZM51.3808 35.5755C51.7696 35.6619 52.1728 35.7339 52.6048 35.7339C53.0368 35.7339 53.4544 35.6619 53.8576 35.5611L56.2048 41.1051L52.7056 42.6027L49.12 41.0619L51.3808 35.5899V35.5755ZM48.4576 42.6315L50.5312 43.5243L47.5792 44.7771L48.472 42.6315H48.4576ZM34.1008 39.3051C32.6464 37.8507 32.6464 35.4747 34.1008 34.0203C34.8352 33.2859 35.7856 32.9259 36.7504 32.9259C37.7152 32.9259 38.6656 33.2859 39.4 34.0203C40.2928 34.9131 40.6384 36.1515 40.4368 37.3179L37.096 35.8779C36.7792 35.7483 36.4048 35.8059 36.16 36.0507C35.9152 36.2955 35.8288 36.6555 35.9728 36.9723L37.3408 40.3419C36.2032 40.5147 34.9936 40.1835 34.1152 39.3051H34.1008ZM38.896 39.7083L38.3056 38.2683L39.7312 38.8875C39.616 39.0315 39.5152 39.1899 39.3856 39.3195C39.2272 39.4779 39.0688 39.5931 38.896 39.7227V39.7083ZM39.5008 41.2059C39.8608 40.9899 40.2064 40.7451 40.5088 40.4283C40.7968 40.1403 41.0272 39.8379 41.2288 39.5211L46.888 41.9547L45.3328 45.7275L41.92 47.1819L39.5008 41.2059ZM43.3024 55.1019L44.5408 58.1403L42.4096 57.2907L43.3168 55.1019H43.3024ZM42.568 48.7659L44.4112 47.9883L43.3168 50.6235L42.568 48.7803V48.7659ZM29.896 56.9739C27.8368 56.9739 26.152 55.2891 26.152 53.2299C26.152 51.1707 27.8368 49.4859 29.896 49.4859C31.1344 49.4859 32.2144 50.0907 32.9056 51.0267L29.5648 52.4523C29.248 52.5819 29.0464 52.8987 29.0464 53.2443C29.0464 53.5899 29.2624 53.8923 29.5792 54.0219L32.9632 55.3611C32.2864 56.3259 31.1632 56.9595 29.896 56.9595V56.9739ZM33.64 53.2299C33.64 53.4171 33.6112 53.6043 33.5824 53.7771L32.128 53.2011L33.568 52.5819C33.6112 52.7835 33.64 52.9995 33.64 53.2155V53.2299ZM35.0944 54.3819C35.1808 54.0075 35.224 53.6187 35.224 53.2299C35.224 52.7835 35.152 52.3659 35.0512 51.9627L40.984 49.4283L42.3664 52.8555L40.7968 56.6571L35.08 54.3819H35.0944ZM39.3856 71.3739C37.9312 72.8283 35.5552 72.8283 34.1008 71.3739C32.6464 69.9195 32.6464 67.5435 34.1008 66.0891C34.8064 65.3835 35.7424 64.9947 36.7504 64.9947C36.952 64.9947 37.1536 65.0235 37.3552 65.0523L35.9728 68.4075C35.8432 68.7243 35.9152 69.0843 36.16 69.3291C36.4048 69.5739 36.7648 69.6459 37.0816 69.5163L40.4512 68.1627C40.624 69.3003 40.2784 70.4955 39.4144 71.3739H39.3856ZM39.3856 66.0891C39.544 66.2475 39.6736 66.4203 39.7888 66.5931L38.3056 67.1979L38.9248 65.7147C39.0832 65.8299 39.256 65.9595 39.4 66.1035L39.3856 66.0891ZM41.2864 65.9883C41.0704 65.6283 40.8112 65.2827 40.5088 64.9659C40.2208 64.6635 39.8752 64.4331 39.5296 64.2171L41.7472 58.8603L45.4192 60.3291L46.816 63.7563L41.3008 65.9739L41.2864 65.9883ZM47.608 61.2075L50.4016 62.3163L48.4 63.1227L47.6224 61.2075H47.608ZM56.3344 75.7515C56.3344 77.8107 54.6496 79.4955 52.5904 79.4955C50.5312 79.4955 48.8464 77.8107 48.8464 75.7515C48.8464 74.4987 49.48 73.3899 50.4304 72.6987L51.7984 76.0683C51.928 76.3851 52.2304 76.6011 52.5904 76.6011C52.936 76.6011 53.2384 76.3995 53.3824 76.0827L54.7792 72.7275C55.7152 73.4043 56.3488 74.5131 56.3488 75.7515H56.3344ZM52.0144 72.0651C52.2016 72.0363 52.3888 72.0075 52.5904 72.0075C52.792 72.0075 52.9936 72.0363 53.1952 72.0651L52.6048 73.5051L52.0144 72.0651ZM53.8144 70.5675C53.4256 70.4811 53.008 70.4091 52.5904 70.4091C52.1728 70.4091 51.784 70.4667 51.4096 70.5531L49.0336 64.6923L52.6912 63.2235L56.2768 64.6491L53.8144 70.5675ZM56.9248 63.0795L54.9808 62.3019L57.7024 61.2075L56.9248 63.0795ZM52.6912 61.3947L46.7296 59.0187L44.2384 52.8699L46.6576 47.0379L52.7056 44.4603L58.7248 47.0523L61.1872 52.8699L58.6384 59.0187L52.7056 61.4091L52.6912 61.3947ZM68.8048 64.9947C69.7984 64.9947 70.7488 65.3835 71.4544 66.0891C72.9088 67.5435 72.9088 69.9195 71.4544 71.3739C70 72.8283 67.624 72.8283 66.1696 71.3739C65.3056 70.5099 64.96 69.3147 65.1328 68.1771L68.5024 69.5163C68.8192 69.6459 69.1792 69.5739 69.424 69.3147C69.6688 69.0699 69.7264 68.7099 69.5968 68.3931L68.1856 65.0523C68.3872 65.0235 68.6032 64.9947 68.8192 64.9947H68.8048ZM66.6016 65.7291L67.2208 67.1979L65.7376 66.6075C65.8672 66.4347 65.9968 66.2619 66.1552 66.1035C66.2992 65.9595 66.4432 65.8443 66.6016 65.7291ZM65.968 64.2459C65.6368 64.4475 65.3056 64.6923 65.0176 64.9659C64.7008 65.2827 64.456 65.6283 64.2256 66.0027L58.4944 63.7131L59.9056 60.3147L63.664 58.8027L65.968 64.2315V64.2459ZM64.5856 56.5995L63.0016 52.8555L64.3984 49.5003L70.072 51.9483C69.9712 52.3659 69.8992 52.7979 69.8992 53.2443C69.8992 53.6475 69.9568 54.0363 70.0432 54.4107L64.5856 56.5995ZM71.5408 53.7915C71.512 53.6043 71.4832 53.4171 71.4832 53.2299C71.4832 52.9995 71.512 52.7835 71.5552 52.5819L73.0096 53.2155L71.5408 53.8059V53.7915ZM75.2272 56.9595C73.96 56.9595 72.8512 56.3259 72.1744 55.3611L75.544 54.0075C75.8608 53.8779 76.0768 53.5755 76.0768 53.2299C76.0768 52.8843 75.8752 52.5675 75.5584 52.4379L72.232 50.9979C72.9088 50.0763 74.0032 49.4715 75.2272 49.4715C77.2864 49.4715 78.9712 51.1563 78.9712 53.2155C78.9712 55.2747 77.2864 56.9595 75.2272 56.9595Z" fill="#4F69ED"/>
<path d="M56.7232 52.2075H55.1536V53.9931H56.7232V52.2075Z" fill="#4F69ED"/>
<path d="M53.5552 52.1787H51.7552V53.9787H53.5552V52.1787Z" fill="#4F69ED"/>
<path d="M55.2112 48.7515H53.4112V50.5515H55.2112V48.7515Z" fill="#4F69ED"/>
<path d="M50.2432 52.1931H48.4432V53.9931H50.2432V52.1931Z" fill="#4F69ED"/>
<path d="M51.8992 48.7515H50.0992V50.5515H51.8992V48.7515Z" fill="#4F69ED"/>
<path d="M55.2112 55.606H53.4112V57.406H55.2112V55.606Z" fill="#4F69ED"/>
<path d="M51.8992 55.606H50.0992V57.406H51.8992V55.606Z" fill="#4F69ED"/>
</svg>
