<svg width="104" height="105" viewBox="0 0 104 105" fill="none" xmlns="http://www.w3.org/2000/svg">
<rect y="0.466797" width="104" height="104" rx="24" fill="#535353" fill-opacity="0.2"/>
<path fill-rule="evenodd" clip-rule="evenodd" d="M56.9655 20.4655C59.8456 20.4335 61.4457 21.8736 62.5658 23.9538C63.1419 25.0099 63.6059 26.13 64.4539 27.0261C66.2301 28.8823 68.0222 29.1223 70.6303 28.2102C72.3265 27.6022 74.0226 28.0022 74.8866 29.3464C75.9107 30.9305 75.4787 32.8667 73.8946 33.8908C72.4225 34.8349 70.4063 34.3549 69.3983 32.8187C68.8222 31.9386 68.1662 31.1225 67.2701 30.5305C65.702 29.4744 64.0219 29.6344 62.3418 30.2264C61.8778 30.3865 61.4457 30.6585 60.9977 30.8185C59.9416 31.2025 59.5096 31.9226 59.6376 33.0267C59.7816 34.2748 60.1017 35.459 60.8537 36.5151C61.0777 36.8191 61.3497 36.9631 61.7498 36.9791C63.3819 36.9951 64.614 37.7632 65.542 39.0273C66.07 39.7314 66.6301 40.4195 67.3661 40.9475C69.1422 42.1956 70.9824 42.0356 72.8225 41.1395C73.3505 40.8835 73.8626 40.5955 74.3746 40.3074C76.1187 39.3634 77.9428 39.2833 79.7349 40.0354C81.351 40.7235 82.3591 41.9716 82.9352 43.6038C83.9112 46.356 82.2471 49.5084 79.7029 50.5485C79.1269 50.7885 78.9509 51.1565 78.9509 51.7326C78.9509 53.2847 79.3189 54.7409 80.215 56.053C80.487 56.453 80.823 56.6931 81.335 56.8051C83.1432 57.2051 83.9272 58.4212 83.9912 60.0214C84.0552 61.6056 82.5831 63.1257 80.951 63.2377C79.7349 63.3177 78.6949 62.8217 77.9748 61.8296C77.3508 60.9495 76.6467 60.1654 75.7187 59.5734C73.7985 58.3572 71.9264 58.7413 70.0703 59.7174C69.2863 60.1334 68.5822 60.6775 67.7182 60.9655C66.086 61.5095 64.646 61.1575 63.3819 60.1014C61.9738 58.9013 61.4457 57.3651 61.9898 55.621C62.7738 53.1087 64.774 51.9886 67.4141 52.5327C68.3582 52.7247 69.1262 53.2527 69.7023 54.0368C70.3743 54.9489 70.9984 55.893 71.8304 56.6931C73.5905 58.3892 75.4147 58.7413 77.7028 57.7812C79.1269 57.1891 79.1109 57.1891 79.0949 55.637C79.0949 54.2448 78.5509 53.0287 77.8308 51.8766C77.4628 51.3005 76.8868 51.1405 76.2307 51.0285C74.1826 50.6605 72.8385 49.4123 71.8464 47.6682C70.9184 46.036 69.7343 44.6439 67.6702 44.4039C66.3901 44.2598 65.222 44.6439 64.0859 45.2039C61.9738 46.276 59.6856 45.86 58.2775 44.1638C56.5814 42.0996 56.9975 39.3153 59.0776 37.8272C59.5736 37.4752 59.7496 37.0751 59.7496 36.4991C59.7496 35.2669 59.4456 34.1308 58.8376 33.0587C58.4376 32.3387 57.8935 31.9706 57.0295 32.0026C53.7012 32.0986 51.0611 29.0423 51.2691 25.954C51.5091 22.7857 54.2453 20.3215 56.9655 20.4655Z" fill="#4F69ED"/>
<path fill-rule="evenodd" clip-rule="evenodd" d="M40.1475 58.1172C40.0835 56.549 39.5874 55.0609 38.7234 53.6687C38.3074 52.9807 37.7153 52.5966 36.9153 52.5166C35.7952 52.3886 34.9471 51.8286 34.2751 50.9645C33.6671 50.1644 33.107 49.3483 32.435 48.5962C31.3309 47.3321 29.9388 46.548 28.1787 46.7081C27.1226 46.8041 26.1146 47.1721 25.2025 47.7002C23.2504 48.8523 21.5063 48.0522 20.6262 46.8841C19.4581 45.3319 20.0182 43.3157 21.3782 42.3716C22.9143 41.3155 24.8985 41.6356 25.9866 43.1397C26.4986 43.8598 27.0586 44.5318 27.7787 45.0759C29.4268 46.34 31.1709 46.452 33.075 45.668C34.1471 45.2199 35.0431 44.4998 36.1152 44.0838C38.0353 43.3477 40.0995 43.9878 41.3956 45.732C42.5316 47.2521 42.5316 49.6683 41.0915 50.9645C39.3474 52.5326 39.7795 54.2608 40.2275 56.069C40.3715 56.661 40.6755 57.2211 40.9635 57.7812C41.3636 58.5972 41.9396 59.1413 42.9637 59.2853C45.1398 59.5733 46.7719 61.5735 46.7399 63.7177C46.7079 65.3819 45.4118 67.2061 43.8757 67.7501C42.0996 68.3742 40.0675 67.8462 38.8674 66.454C38.3874 65.894 37.9873 65.2699 37.4433 64.7418C35.6192 62.9657 33.491 62.6456 31.2029 63.8458C30.7069 64.1018 30.1948 64.3418 29.7148 64.6298C26.6426 66.39 22.7703 65.1419 21.3462 62.1016C20.0662 59.3493 21.0742 56.117 23.9384 54.5808C26.8506 53.0127 30.3708 54.1008 31.9549 57.0451C32.451 57.9412 33.043 58.7573 33.8111 59.4613C35.5392 61.0935 37.9553 60.8215 39.6994 59.8454C40.3555 59.4773 40.0355 58.7573 40.1475 58.1332" fill="#4F69ED"/>
<path fill-rule="evenodd" clip-rule="evenodd" d="M31.2699 27.9546C32.2459 27.8906 33.19 28.0986 34.1341 28.2427C35.7342 28.4827 37.2063 28.1466 38.5023 27.1706C39.4464 26.4665 39.8784 25.4424 40.2144 24.3703C40.4065 23.7622 40.5505 23.1382 40.9185 22.5781C41.5905 21.538 43.1746 20.8179 44.2467 21.122C45.9428 21.586 46.8709 22.6741 46.9349 24.1623C46.9669 25.1063 46.7749 25.9384 46.0388 26.6105C45.6708 26.9625 45.5428 27.4426 45.4948 27.9386C45.3508 29.4908 45.7348 30.9149 46.6309 32.1951C46.9189 32.6111 47.2709 32.8991 47.8309 32.9311C49.7511 33.0591 51.1752 34.1792 51.7832 35.9554C52.3112 37.5396 51.7832 39.3318 50.3911 40.5159C48.135 42.4521 44.7107 41.812 43.4307 39.1557C42.5346 37.2836 42.8706 35.0753 44.6307 33.8752C45.7828 33.0911 45.7348 32.147 45.5588 31.1069C45.4468 30.4349 45.2068 29.7788 44.8868 29.1547C43.9587 27.3786 43.4467 27.4106 41.7666 27.6346C39.8144 27.8906 38.3583 28.9467 37.7343 30.8509C37.4463 31.747 37.1903 32.6431 37.1582 33.6192C37.0782 36.0034 35.9742 37.7956 33.766 38.8677C30.7418 40.3559 27.0296 38.8677 25.7335 35.8274C24.5334 33.0271 25.8775 29.2508 29.3817 28.1146C30.0058 27.9066 30.6458 28.0026 31.2699 27.9706V27.9546Z" fill="#4F69ED"/>
<path fill-rule="evenodd" clip-rule="evenodd" d="M72.5515 76.9995C71.7194 77.0635 70.7754 76.8555 69.8313 76.6955C68.3912 76.4395 67.0471 76.8075 65.8471 77.5116C64.791 78.1357 64.199 79.1918 63.8469 80.3439C63.5269 81.4 63.3189 82.4721 62.2628 83.1762C61.5908 83.6242 60.9507 83.8642 60.1187 83.7842C59.0786 83.6722 58.2306 83.3682 57.6225 82.4881C56.8545 81.384 56.7425 79.6398 57.7025 78.7117C59.2546 77.2076 58.7586 75.6234 58.1826 73.9752C58.1186 73.7832 57.9906 73.6072 57.9106 73.4152C57.5425 72.5351 56.9185 72.1031 55.9264 72.023C53.9583 71.863 52.5022 70.4229 52.0862 68.3587C51.7661 66.7425 52.7742 64.7423 54.3583 63.8782C56.0544 62.9501 58.1346 63.1902 59.5267 64.4703C61.6868 66.4545 61.4948 69.6068 59.0946 71.351C58.7426 71.607 58.5186 71.895 58.5026 72.3111C58.4226 73.8472 58.7586 75.2874 59.7027 76.5515C60.1187 77.1116 60.6787 77.4636 61.4468 77.3996C64.119 77.1596 65.6871 76.1995 66.4231 73.6072C66.6471 72.8071 66.7911 72.007 66.8231 71.159C66.9191 67.9906 69.7193 65.3824 72.9515 65.5264C75.6877 65.6544 77.9759 67.3826 78.5839 70.2789C79.1119 72.7911 77.7038 75.4634 75.2717 76.5515C74.589 76.8609 73.6716 77.0102 72.5195 76.9995" fill="#4F69ED"/>
<path fill-rule="evenodd" clip-rule="evenodd" d="M46.7553 84.4717C44.1631 84.5357 42.579 83.0796 41.443 81.0154C40.8669 79.9593 40.4189 78.8232 39.5708 77.9431C37.8587 76.1669 36.1626 75.7829 33.4104 76.711C32.0663 77.175 30.7383 77.239 29.6022 76.1509C28.5461 75.1588 28.3221 73.9427 28.7861 72.6626C29.2022 71.4944 30.0982 70.7744 31.3943 70.6304C32.7384 70.4703 33.7785 70.9824 34.5625 72.0385C34.9145 72.5025 35.2186 72.9986 35.6186 73.4146C37.4267 75.3348 39.2668 75.5428 41.635 74.7268C42.483 74.4387 43.2511 73.9907 44.0351 73.5586C47.4113 71.7505 51.5716 73.7667 52.4997 77.191C53.3477 80.3593 51.2356 83.5596 48.1794 84.3437C47.7154 84.4557 47.2513 84.4237 46.7713 84.4397" fill="#4F69ED"/>
<path fill-rule="evenodd" clip-rule="evenodd" d="M81.2276 35.155C81.2276 35.715 80.7636 36.1791 80.1716 36.1791C79.5795 36.1791 79.1155 35.715 79.1155 35.155C79.1155 34.5949 79.5795 34.1309 80.1716 34.1309C80.7636 34.1309 81.2276 34.5949 81.2276 35.155Z" fill="#4F69ED"/>
<path fill-rule="evenodd" clip-rule="evenodd" d="M75.2084 62.4699C75.2084 63.03 74.7444 63.494 74.1523 63.494C73.5603 63.494 73.0963 63.03 73.0963 62.4699C73.0963 61.9098 73.5603 61.4458 74.1523 61.4458C74.7444 61.4458 75.2084 61.9098 75.2084 62.4699Z" fill="#4F69ED"/>
<path fill-rule="evenodd" clip-rule="evenodd" d="M84.0078 53.3008C84.0078 53.7649 83.6238 54.1329 83.1597 54.1329C82.6957 54.1329 82.3117 53.7649 82.3117 53.3008C82.3117 52.8368 82.6957 52.4688 83.1597 52.4688C83.6238 52.4688 84.0078 52.8368 84.0078 53.3008Z" fill="#4F69ED"/>
<path fill-rule="evenodd" clip-rule="evenodd" d="M28.2807 50.9649C28.2807 51.4289 27.8966 51.797 27.4326 51.797C26.9686 51.797 26.5845 51.4289 26.5845 50.9649C26.5845 50.5008 26.9686 50.1328 27.4326 50.1328C27.8966 50.1328 28.2807 50.5008 28.2807 50.9649Z" fill="#1A3EE8"/>
<path fill-rule="evenodd" clip-rule="evenodd" d="M36.8076 24.8975C36.8076 25.3616 36.4236 25.7296 35.9596 25.7296C35.4955 25.7296 35.1115 25.3616 35.1115 24.8975C35.1115 24.4335 35.4955 24.0654 35.9596 24.0654C36.4236 24.0654 36.8076 24.4335 36.8076 24.8975Z" fill="#4F69ED"/>
<path fill-rule="evenodd" clip-rule="evenodd" d="M40.1269 39.108C40.1269 39.572 39.7428 39.94 39.2788 39.94C38.8148 39.94 38.4308 39.572 38.4308 39.108C38.4308 38.6439 38.8148 38.2759 39.2788 38.2759C39.7428 38.2759 40.1269 38.6439 40.1269 39.108Z" fill="#4F69ED"/>
</svg>
