<svg width="104" height="105" viewBox="0 0 104 105" fill="none" xmlns="http://www.w3.org/2000/svg">
<rect y="0.466797" width="104" height="104" rx="24" fill="#535353" fill-opacity="0.2"/>
<path d="M58.8102 51.1767L72.2056 44.2441C71.5602 43.6068 71.1667 42.7053 70.8991 41.8037L57.6297 48.7363C58.1491 49.5135 58.5426 50.2752 58.7945 51.1767H58.8102Z" fill="#1A3EE8"/>
<path d="M47.4927 48.6121L34.6168 41.9282C34.3492 42.8298 33.8297 43.7313 33.1844 44.3686L46.3278 51.1769C46.5954 50.2753 46.9732 49.3738 47.4927 48.6121Z" fill="#1A3EE8"/>
<path d="M52.6871 59.3993C52.1677 59.3993 51.6482 59.3993 51.1288 59.2749V74.4303C51.6482 74.3059 52.1677 74.3059 52.6871 74.3059C53.2066 74.3059 53.6001 74.3059 53.9936 74.4303V59.2749C53.6001 59.2749 53.2066 59.3993 52.6871 59.3993Z" fill="#1A3EE8"/>
<path d="M76.6287 60.052C77.2741 60.052 77.7935 60.1763 78.313 60.3162V45.6738C77.6676 45.9381 77.0065 45.9381 76.3611 45.9381H75.5741V60.1919C75.8417 60.0675 76.2195 60.0675 76.613 60.0675L76.6287 60.052Z" fill="#1A3EE8"/>
<path d="M72.4731 69.9381C71.9537 69.4252 71.5602 68.9122 71.3083 68.2749L57.2519 76.2334C57.7713 77.0106 58.1648 77.8966 58.2908 78.7982L73.1185 70.3267L72.4731 69.9381Z" fill="#1A3EE8"/>
<path d="M33.0427 69.4259L32.2557 70.5761L47.0834 79.0476C47.2094 78.146 47.6029 77.2445 48.1223 76.4828L33.6881 68.1357C33.5622 68.6487 33.2946 69.0373 33.0427 69.4259Z" fill="#1A3EE8"/>
<path d="M29.1547 45.9076C28.3677 45.9076 27.5964 45.7833 26.951 45.519V60.6744C27.3446 60.6744 27.5964 60.55 27.9899 60.55C28.6353 60.55 29.1547 60.6744 29.8159 60.8143V45.9076H29.1705H29.1547Z" fill="#1A3EE8"/>
<path d="M48.5315 29.0886C48.0121 28.5756 47.4927 27.9383 47.3667 27.1611C47.2408 27.0368 47.2408 26.8969 47.0991 26.6482L32.3973 35.1196C33.1844 35.6326 33.8297 36.4098 34.2232 37.2958L48.5315 29.073C48.5315 29.1559 48.5315 29.1559 48.5315 29.073V29.0886Z" fill="#1A3EE8"/>
<path d="M58.2908 26.7732C58.1649 27.1618 58.0232 27.5504 57.7713 27.9234L56.8584 29.0737L71.2926 37.2964C71.6861 36.3949 72.3315 35.6332 73.1185 35.1203L58.2908 26.7732Z" fill="#1A3EE8"/>
<path d="M76.5028 44.1195C78.6592 44.1195 80.4065 42.3941 80.4065 40.2646C80.4065 38.135 78.6592 36.4097 76.5028 36.4097C74.3463 36.4097 72.5991 38.135 72.5991 40.2646C72.5991 42.3941 74.3463 44.1195 76.5028 44.1195Z" fill="#4F69ED"/>
<path d="M52.5612 29.0889C54.7176 29.0889 56.4648 27.3636 56.4648 25.234C56.4648 23.1045 54.7176 21.3792 52.5612 21.3792C50.4047 21.3792 48.6575 23.1045 48.6575 25.234C48.6575 27.3636 50.4047 29.0889 52.5612 29.0889Z" fill="#1A3EE8"/>
<path d="M52.5612 83.5548C54.7176 83.5548 56.4648 81.8294 56.4648 79.6999C56.4648 77.5703 54.7176 75.845 52.5612 75.845C50.4047 75.845 48.6575 77.5703 48.6575 79.6999C48.6575 81.8294 50.4047 83.5548 52.5612 83.5548Z" fill="#4F69ED"/>
<path d="M76.8963 69.6741C79.0528 69.6741 80.8 67.9488 80.8 65.8193C80.8 63.6897 79.0528 61.9644 76.8963 61.9644C74.7398 61.9644 72.9926 63.6897 72.9926 65.8193C72.9926 67.9488 74.7398 69.6741 76.8963 69.6741Z" fill="#1A3EE8"/>
<path d="M28.3677 69.6741C30.5242 69.6741 32.2714 67.9488 32.2714 65.8193C32.2714 63.6897 30.5242 61.9644 28.3677 61.9644C26.2113 61.9644 24.464 63.6897 24.464 65.8193C24.464 67.9488 26.2113 69.6741 28.3677 69.6741Z" fill="#1A3EE8"/>
<path d="M29.1548 44.1195C31.3112 44.1195 33.0585 42.3941 33.0585 40.2646C33.0585 38.135 31.3112 36.4097 29.1548 36.4097C26.9983 36.4097 25.2511 38.135 25.2511 40.2646C25.2511 42.3941 26.9983 44.1195 29.1548 44.1195Z" fill="#4F69ED"/>
<path d="M52.5612 58.3734C55.6463 58.3734 58.1491 55.9019 58.1491 52.8553C58.1491 49.8086 55.6463 47.3372 52.5612 47.3372C49.476 47.3372 46.9732 49.8086 46.9732 52.8553C46.9732 55.9019 49.476 58.3734 52.5612 58.3734Z" fill="#4F69ED"/>
</svg>
