<svg width="44" height="41" viewBox="0 0 44 41" fill="none" xmlns="http://www.w3.org/2000/svg">
<path fill-rule="evenodd" clip-rule="evenodd" d="M32.1662 22.9472L43.3911 39.3546C43.466 39.4625 43.495 39.5957 43.4717 39.7249C43.4485 39.8542 43.3749 39.969 43.2672 40.044C43.1844 40.0989 43.0875 40.1285 42.9883 40.1292H20.5695C20.4346 40.1193 20.3088 40.057 20.2191 39.9557C20.1294 39.8545 20.0828 39.7221 20.0892 39.587C20.0924 39.5013 20.1192 39.4182 20.1667 39.3468L31.3683 22.9782C31.414 22.9162 31.4735 22.8658 31.5421 22.8308C31.6107 22.7959 31.6864 22.7774 31.7634 22.7768C31.8394 22.7692 31.9161 22.7809 31.9865 22.8107C32.0569 22.8404 32.1187 22.8874 32.1662 22.9472Z" fill="#A600CE"/>
<path fill-rule="evenodd" clip-rule="evenodd" d="M14.8371 39.5175L27.9444 20.4453C28.0054 20.3563 28.038 20.251 28.038 20.1432C28.038 20.0353 28.0054 19.93 27.9444 19.841L14.7751 0.699093C14.7389 0.647715 14.6928 0.604077 14.6395 0.570736C14.5862 0.537394 14.5268 0.515019 14.4648 0.504919C14.4028 0.494819 14.3393 0.497199 14.2782 0.511918C14.2171 0.526637 14.1595 0.5534 14.1089 0.59064L14.0005 0.70684L0.916386 19.8333C0.859404 19.9151 0.828857 20.0125 0.828857 20.1122C0.828857 20.2119 0.859404 20.3092 0.916386 20.3911L14.0005 39.5175C14.0369 39.5706 14.0835 39.616 14.1376 39.651C14.1917 39.686 14.2521 39.7099 14.3155 39.7214C14.3789 39.733 14.4439 39.7318 14.5068 39.7181C14.5698 39.7044 14.6293 39.6783 14.6822 39.6414C14.745 39.6164 14.7989 39.5733 14.8371 39.5175Z" fill="#004EFC"/>
<path fill-rule="evenodd" clip-rule="evenodd" d="M32.1741 17.3156L43.4378 0.908201C43.5123 0.79477 43.5395 0.656634 43.5134 0.523408C43.4874 0.390183 43.4101 0.272472 43.2983 0.195511C43.2048 0.14106 43.0958 0.119259 42.9885 0.133538H20.5697C20.4361 0.14346 20.3116 0.204621 20.2221 0.304236C20.1326 0.40385 20.085 0.534206 20.0894 0.668056C20.097 0.758156 20.1353 0.842922 20.1978 0.908201L31.3685 17.2846C31.4118 17.3489 31.4708 17.4012 31.54 17.4364C31.6091 17.4717 31.686 17.4887 31.7636 17.486C31.8409 17.4957 31.9194 17.485 31.9914 17.4551C32.0634 17.4253 32.1264 17.3772 32.1741 17.3156Z" fill="#00C689"/>
</svg>
