<svg xmlns:xlink="http://www.w3.org/1999/xlink"  xmlns="http://www.w3.org/2000/svg" width="183" height="35" fill="none"><path fill="#fff" fill-rule="evenodd" d="M60.615 22.942a.587.587 0 0 1 .62.555c.007.068.007.136 0 .204a8.996 8.996 0 0 1-2.813 4.453 8.45 8.45 0 0 1-5.393 1.817 8.653 8.653 0 0 1-4.34-1.182 8.6 8.6 0 0 1-3.152-3.197c-.177-.373-.34-.678-.477-1.064a7.355 7.355 0 0 1-.327-1.309 43.178 43.178 0 0 1-.252-5.707 42.374 42.374 0 0 1 .245-5.728c.127-.82.397-1.61.797-2.338a8.36 8.36 0 0 1 2.833-3.03 8.07 8.07 0 0 1 4.72-1.403 7.888 7.888 0 0 1 5.626 2.101 9.149 9.149 0 0 1 2.595 4.413.58.58 0 0 1-.41.678h-2.84a.595.595 0 0 1-.564-.393 5.47 5.47 0 0 0-1.465-2.102 4.624 4.624 0 0 0-2.949-1.03 4.923 4.923 0 0 0-2.213.522c-.62.302-1.162.74-1.587 1.281a4.098 4.098 0 0 0-.933 2.034 29.51 29.51 0 0 0-.238 4.961 29.582 29.582 0 0 0 .258 4.941 4.638 4.638 0 0 0 2.452 3.342c.672.38 1.435.57 2.207.55 1.93 0 3.398-1.008 4.406-3.024a.59.59 0 0 1 .566-.339l2.628-.006ZM69.387 19.613 62.658 6.104a.594.594 0 0 1 .266-.793.888.888 0 0 1 .266-.06h2.506a.615.615 0 0 1 .538.345l4.372 9.395a.598.598 0 0 0 .776.298.638.638 0 0 0 .3-.298l4.373-9.361a.598.598 0 0 1 .558-.346h2.472a.608.608 0 0 1 .606.59c0 .09-.02.177-.061.257l-6.688 13.476a.676.676 0 0 0-.068.264v9.334a.56.56 0 0 1-.558.59h-2.261a.587.587 0 0 1-.62-.55V19.83a.676.676 0 0 0-.055-.257M81.892 5.264h2.594a.587.587 0 0 1 .559.447l3.63 17h.075l4.515-17.014a.59.59 0 0 1 .565-.447h1.71a.574.574 0 0 1 .551.447l4.482 17.034h.068l3.671-17a.605.605 0 0 1 .565-.454h2.595a.57.57 0 0 1 .53.35c.029.07.043.145.042.22a.398.398 0 0 1 0 .128l-5.673 23.447a.548.548 0 0 1-.552.447h-2.043a.607.607 0 0 1-.565-.447l-4.42-17.258h-.055l-4.454 17.258a.583.583 0 0 1-.558.447h-2.112a.553.553 0 0 1-.558-.447l-5.72-23.467a.581.581 0 0 1 .435-.678h.136M121.992 21.016a.585.585 0 0 0 .558-.596.347.347 0 0 0 0-.17l-3.215-9.99h-.068l-3.214 10.079a.554.554 0 0 0 .334.677h.074a.78.78 0 0 0 .178 0h5.353Zm1.409 3.301h-8.213a.604.604 0 0 0-.559.407l-1.573 4.698a.587.587 0 0 1-.558.4h-2.588a.592.592 0 0 1-.559-.59.53.53 0 0 1 .041-.197l8.275-23.378a.6.6 0 0 1 .558-.407h2.207a.582.582 0 0 1 .565.393l8.275 23.385a.592.592 0 0 1-.388.74.978.978 0 0 1-.198 0h-2.595a.554.554 0 0 1-.565-.408l-1.573-4.697a.585.585 0 0 0-.552-.393v.047ZM137.043 15.41a.578.578 0 0 0 .36.546c.071.03.148.044.225.044h4.931a4.032 4.032 0 0 0 3.065-1.22 3.856 3.856 0 0 0 1.001-2.677 3.221 3.221 0 0 0-1.205-2.806 4.156 4.156 0 0 0-2.656-.746h-5.108a.557.557 0 0 0-.533.312.529.529 0 0 0-.053.21v6.304l-.027.034Zm-3.63-9.59a.599.599 0 0 1 .592-.59h8.759a7.255 7.255 0 0 1 4.883 1.62 6.674 6.674 0 0 1 2.37 5.24c-.05 3.127-1.412 5.318-4.087 6.574a.591.591 0 0 0-.258.793l4.801 9.49c.042.065.07.138.084.214a.578.578 0 0 1-.275.592h-.054a.684.684 0 0 1-.266.055H147a.58.58 0 0 1-.559-.34l-4.61-9.868a.564.564 0 0 0-.552-.34h-3.678a.586.586 0 0 0-.585.597v9.348a.6.6 0 0 1-.586.59h-2.397a.608.608 0 0 1-.6-.59l-.02-23.386ZM155.853 5.264h14.071a.586.586 0 0 1 .558.583v2.331a.6.6 0 0 1-.558.59h-10.447a.563.563 0 0 0-.593.522v5.89a.561.561 0 0 0 .531.59h8.854a.592.592 0 0 1 .599.583v2.101a.597.597 0 0 1-.586.59h-8.805a.568.568 0 0 0-.593.529v6.1a.583.583 0 0 0 .565.597h10.475a.56.56 0 0 1 .565.549v2.331a.593.593 0 0 1-.565.59h-14.071a.593.593 0 0 1-.592-.583V5.82a.588.588 0 0 1 .592-.59" clip-rule="evenodd"/><path fill="#A600CE" fill-rule="evenodd" d="m27.55 19.966 9.869 14.356a.432.432 0 0 1-.355.678h-19.71a.457.457 0 0 1-.421-.474.406.406 0 0 1 .068-.21l9.848-14.323a.436.436 0 0 1 .347-.176.403.403 0 0 1 .354.149Z" clip-rule="evenodd"/><path fill="#004EFC" fill-rule="evenodd" d="M12.315 34.465 23.84 17.776a.467.467 0 0 0 0-.528L12.26.498a.413.413 0 0 0-.437-.163.416.416 0 0 0-.149.069l-.095.101L.077 17.241a.426.426 0 0 0 0 .488L11.58 34.465a.427.427 0 0 0 .445.175.43.43 0 0 0 .154-.067.3.3 0 0 0 .136-.108Z" clip-rule="evenodd"/><path fill="#00C689" fill-rule="evenodd" d="M27.557 15.038 37.46.682a.452.452 0 0 0-.123-.624.431.431 0 0 0-.272-.054h-19.71a.457.457 0 0 0-.422.467c.007.08.04.153.095.21l9.821 14.33a.401.401 0 0 0 .347.176.397.397 0 0 0 .361-.149Z" clip-rule="evenodd"/><path fill="#fff" d="M175.59 1.685v4.067h-.558V1.685h-1.362v-.55h3.228v.55h-1.308Zm5.987 4.067v-3.81l-1.587 3.83h-.191l-1.566-3.83v3.83h-.593V1.136h.906l1.362 3.389 1.362-3.39h.906v4.637l-.599-.02Z"/></svg>