<svg width="80" height="80" viewBox="0 0 80 80" fill="none" xmlns="http://www.w3.org/2000/svg">
<path d="M46.8102 39.1767L60.2056 32.2441C59.5602 31.6068 59.1667 30.7053 58.8991 29.8037L45.6297 36.7363C46.1491 37.5135 46.5426 38.2752 46.7945 39.1767H46.8102Z" fill="#1A3EE8"/>
<path d="M35.4927 36.6121L22.6168 29.9282C22.3492 30.8298 21.8297 31.7313 21.1844 32.3686L34.3278 39.1769C34.5954 38.2753 34.9732 37.3738 35.4927 36.6121Z" fill="#1A3EE8"/>
<path d="M40.6871 47.3993C40.1677 47.3993 39.6482 47.3993 39.1288 47.2749V62.4303C39.6482 62.3059 40.1677 62.3059 40.6871 62.3059C41.2066 62.3059 41.6001 62.3059 41.9936 62.4303V47.2749C41.6001 47.2749 41.2066 47.3993 40.6871 47.3993Z" fill="#1A3EE8"/>
<path d="M64.6287 48.052C65.2741 48.052 65.7935 48.1763 66.313 48.3162V33.6738C65.6676 33.9381 65.0065 33.9381 64.3611 33.9381H63.5741V48.1919C63.8417 48.0675 64.2195 48.0675 64.613 48.0675L64.6287 48.052Z" fill="#1A3EE8"/>
<path d="M60.4731 57.9381C59.9537 57.4252 59.5602 56.9122 59.3083 56.2749L45.2519 64.2334C45.7713 65.0106 46.1648 65.8966 46.2908 66.7982L61.1185 58.3267L60.4731 57.9381Z" fill="#1A3EE8"/>
<path d="M21.0427 57.4259L20.2557 58.5761L35.0834 67.0476C35.2094 66.146 35.6029 65.2445 36.1223 64.4828L21.6881 56.1357C21.5622 56.6487 21.2946 57.0373 21.0427 57.4259Z" fill="#1A3EE8"/>
<path d="M17.1547 33.9076C16.3677 33.9076 15.5964 33.7833 14.951 33.519V48.6744C15.3446 48.6744 15.5964 48.55 15.9899 48.55C16.6353 48.55 17.1547 48.6744 17.8159 48.8143V33.9076H17.1705H17.1547Z" fill="#1A3EE8"/>
<path d="M36.5315 17.0886C36.0121 16.5756 35.4927 15.9383 35.3667 15.1611C35.2408 15.0368 35.2408 14.8969 35.0991 14.6482L20.3973 23.1196C21.1844 23.6326 21.8297 24.4098 22.2232 25.2958L36.5315 17.073C36.5315 17.1559 36.5315 17.1559 36.5315 17.073V17.0886Z" fill="#1A3EE8"/>
<path d="M46.2908 14.7732C46.1649 15.1618 46.0232 15.5504 45.7713 15.9234L44.8584 17.0737L59.2926 25.2964C59.6861 24.3949 60.3315 23.6332 61.1185 23.1203L46.2908 14.7732Z" fill="#1A3EE8"/>
<path d="M64.5028 32.1195C66.6592 32.1195 68.4065 30.3941 68.4065 28.2646C68.4065 26.135 66.6592 24.4097 64.5028 24.4097C62.3463 24.4097 60.5991 26.135 60.5991 28.2646C60.5991 30.3941 62.3463 32.1195 64.5028 32.1195Z" fill="#4F69ED"/>
<path d="M40.5612 17.0889C42.7176 17.0889 44.4648 15.3636 44.4648 13.234C44.4648 11.1045 42.7176 9.37915 40.5612 9.37915C38.4047 9.37915 36.6575 11.1045 36.6575 13.234C36.6575 15.3636 38.4047 17.0889 40.5612 17.0889Z" fill="#1A3EE8"/>
<path d="M40.5612 71.5548C42.7176 71.5548 44.4648 69.8294 44.4648 67.6999C44.4648 65.5703 42.7176 63.845 40.5612 63.845C38.4047 63.845 36.6575 65.5703 36.6575 67.6999C36.6575 69.8294 38.4047 71.5548 40.5612 71.5548Z" fill="#4F69ED"/>
<path d="M64.8963 57.6741C67.0528 57.6741 68.8 55.9488 68.8 53.8193C68.8 51.6897 67.0528 49.9644 64.8963 49.9644C62.7398 49.9644 60.9926 51.6897 60.9926 53.8193C60.9926 55.9488 62.7398 57.6741 64.8963 57.6741Z" fill="#1A3EE8"/>
<path d="M16.3677 57.6741C18.5242 57.6741 20.2714 55.9488 20.2714 53.8193C20.2714 51.6897 18.5242 49.9644 16.3677 49.9644C14.2113 49.9644 12.464 51.6897 12.464 53.8193C12.464 55.9488 14.2113 57.6741 16.3677 57.6741Z" fill="#1A3EE8"/>
<path d="M17.1548 32.1195C19.3112 32.1195 21.0585 30.3941 21.0585 28.2646C21.0585 26.135 19.3112 24.4097 17.1548 24.4097C14.9983 24.4097 13.2511 26.135 13.2511 28.2646C13.2511 30.3941 14.9983 32.1195 17.1548 32.1195Z" fill="#4F69ED"/>
<path d="M40.5612 46.3734C43.6463 46.3734 46.1491 43.9019 46.1491 40.8553C46.1491 37.8086 43.6463 35.3372 40.5612 35.3372C37.476 35.3372 34.9732 37.8086 34.9732 40.8553C34.9732 43.9019 37.476 46.3734 40.5612 46.3734Z" fill="#4F69ED"/>
</svg>
