<svg xmlns:xlink="http://www.w3.org/1999/xlink"  xmlns="http://www.w3.org/2000/svg" width="260" height="90" viewBox="0 0 260 90" fill="none">
<path d="M148.664 7.37231C173.58 9.95099 167.683 47.1828 143.162 40.7431C140.872 40.1416 133.875 37.255 135.398 34.1874C136.898 31.165 141.748 36.4755 144.731 37.0201C163.401 40.4293 166.278 14.3741 150.082 11.8023C135.278 9.45161 134.356 26.6729 127.784 34.8277C114.413 51.422 90.1 35.845 98.2919 17.6006C102.623 7.95579 114.925 5.37944 123.587 10.9091C125.336 12.0256 127.586 13.4153 126.088 15.733C124.699 17.879 122.298 14.8421 121.142 14.207C100.874 3.07975 92.6479 35.8404 112.363 37.6419C131.755 39.4132 125.922 8.81941 146.925 7.37231H148.665H148.664Z" fill="#51B592"/>
<path d="M67.7933 7.37231C68.19 8.08281 68.9231 8.45285 69.0901 9.32749C69.7902 12.9942 68.5873 18.6138 69.0977 22.5103H86.9239C87.4343 18.6138 86.2314 12.9942 86.9315 9.32749C87.0985 8.45285 87.8316 8.08223 88.2283 7.37231H89.5328C90.5147 8.10543 91.3075 8.84899 91.2797 10.176C90.4735 19.1805 92.3307 29.9528 91.2797 38.7375C90.7728 42.9778 86.9239 40.989 86.9239 40.0268V26.4026H69.0977V40.0268C69.0977 41.3944 65.3277 42.0324 64.75 39.8105V7.37231H67.7933Z" fill="#51B592"/>
<path d="M195.187 16.8878C195.263 17.5855 195.279 18.8023 195.187 19.4827C194.819 22.218 192.963 25.7159 190.551 27.1978C190.004 27.5342 187.582 28.5655 187.144 28.5655H175.187V40.0268C175.187 41.5505 172.134 41.7279 171.274 40.4595V8.45343L171.926 7.80441H187.578C188.261 7.80441 191.698 9.79613 192.318 10.4417C193.56 11.7339 194.998 15.1501 195.186 16.8872L195.187 16.8878ZM186.274 11.6974C183.302 11.1742 178.981 12.0825 175.839 11.6974L175.187 12.3464V24.0241L175.839 24.6731H185.839C185.955 24.6731 187.661 23.9144 187.948 23.7434C192.55 20.9936 191.317 12.5853 186.274 11.6979L186.274 11.6974Z" fill="#51B592"/>
<path d="M123.881 58.4087C131.994 51.3356 143.075 59.4962 138.609 69.3823C136.091 74.9549 127.827 76.4983 124.099 71.3792C123.637 71.4059 124.296 73.571 123.017 74.2212C122.277 74.5976 121.273 73.5496 121.273 73.3297V46.9462L122.361 46.2821C122.806 46.2531 123.881 47.184 123.881 47.3789V58.4081L123.881 58.4087ZM128.984 58.5148C121.871 59.7154 122.312 70.7505 128.908 71.7869C139.653 73.4753 139.627 56.7186 128.984 58.5148Z" fill="#FBFBFB"/>
<path d="M145.186 66.194C145.789 70.4941 149.336 72.5879 153.566 71.7162C155.245 71.3699 158.394 67.3169 159.065 69.4896C159.755 71.722 155.096 74.1145 153.193 74.3726C139.679 76.2054 138.662 55.5244 151.931 55.783C155.265 55.848 158.271 57.6506 159.55 60.7716C159.9 61.6254 161.142 66.194 159.751 66.194H145.186ZM157.795 64.0318C156.641 56.3822 146.345 56.5075 145.186 64.0318H157.795Z" fill="#FBFBFB"/>
<path d="M103.395 56.305L109.103 70.5191L115.398 56.6768C115.973 55.9495 117.522 56.0684 117.773 56.9413C118.151 58.2596 108.193 79.1407 107.181 82.2362L105.187 82.6277C104.201 81.6516 107.469 76.2013 107.715 74.9537C108.3 71.9911 102.341 61.5998 101.348 58.0914C100.915 56.5104 101.949 55.946 103.394 56.3056L103.395 56.305Z" fill="#FBFBFB"/>
<path d="M91.1567 55.9182C92.9855 55.6056 99.9054 56.2813 99.0952 59.0438C98.5714 60.8308 95.7016 58.6836 94.8716 58.5067C83.7757 56.1397 83.3447 73.6058 94.508 71.7887C95.8141 71.5758 97.4758 69.8903 98.6776 70.7192C100.064 73.9532 94.1345 74.6139 91.9218 74.4149C81.3722 73.4666 80.943 57.6651 91.1573 55.9188L91.1567 55.9182Z" fill="#FBFBFB"/>
<path d="M164.317 56.8949C164.487 56.2847 165.522 55.5255 166.3 56.2146C167.393 57.1837 166.639 59.7027 167.143 59.7108C166.919 56.2018 174.367 54.3406 175.149 56.9355C175.832 59.2091 170.98 57.8345 169.234 59.4092C168.582 59.9973 166.925 63.9227 166.925 64.6802V73.3303C166.925 73.4075 166.01 74.3349 165.778 74.3755C165.332 74.51 164.317 73.4417 164.317 73.3303V56.8949Z" fill="#FBFBFB"/>
</svg>