<svg xmlns:xlink="http://www.w3.org/1999/xlink"  xmlns="http://www.w3.org/2000/svg" width="260" height="90" viewBox="0 0 260 90" fill="none">
<path d="M143.4 35.5L152.8 32L143.4 28.4V23.5L159.5 30V34L143.4 40.5V35.5Z" fill="white"/>
<path d="M54.5 66.5C51.1 66.5 48.3 64.8 48.3 61V60.8C48.3 56.2 52.3 54.6 57.2 54.6H59.5V53.7C59.5 51.8 58.7 50.7 56.7 50.7C54.9 50.7 54 51.7 53.9 53.1H48.9C49.3 48.9 52.6 46.9 57 46.9C61.5 46.9 64.8 48.8 64.8 53.5V66.1H59.7V63.9C58.7 65.3 57 66.5 54.5 66.5ZM59.5 59.9V58.1H57.4C54.8 58.1 53.5 58.8 53.5 60.5V60.7C53.5 62 54.3 62.9 56.1 62.9C57.9 62.8 59.5 61.8 59.5 59.9ZM76.7 66.5C71.5 66.5 67.7 63.3 67.7 56.9V56.6C67.7 50.2 71.7 46.8 76.7 46.8C81 46.8 84.5 49 84.9 53.9H79.9C79.6 52.1 78.6 50.9 76.8 50.9C74.6 50.9 73 52.7 73 56.4V57C73 60.8 74.4 62.5 76.8 62.5C78.6 62.5 79.9 61.2 80.2 59.1H85C84.7 63.5 81.8 66.5 76.7 66.5ZM96.3 66.5C91.1 66.5 87.3 63.3 87.3 56.9V56.6C87.3 50.2 91.3 46.8 96.3 46.8C100.6 46.8 104.1 49 104.5 53.9H99.5C99.2 52.1 98.2 50.9 96.4 50.9C94.2 50.9 92.6 52.7 92.6 56.4V57C92.6 60.8 94 62.5 96.4 62.5C98.2 62.5 99.5 61.2 99.8 59.1H104.6C104.3 63.5 101.4 66.5 96.3 66.5ZM116 66.5C110.6 66.5 106.9 63.3 106.9 57V56.6C106.9 50.3 110.8 46.8 115.9 46.8C120.6 46.8 124.5 49.4 124.5 55.7V58H112.2C112.4 61.4 113.9 62.7 116.1 62.7C118.1 62.7 119.2 61.6 119.6 60.3H124.5C123.9 63.8 120.9 66.5 116 66.5ZM112.3 54.5H119.3C119.2 51.7 117.9 50.5 115.8 50.5C114.2 50.6 112.7 51.5 112.3 54.5ZM127.7 47.3H133V50.1C133.9 48.3 135.8 46.9 138.7 46.9C142.1 46.9 144.4 49 144.4 53.5V66.1H139.1V54.3C139.1 52.1 138.2 51.1 136.3 51.1C134.5 51.1 133 52.2 133 54.6V66.1H127.7V47.3ZM154.1 41.6V47.3H157.7V51.2H154.1V60.1C154.1 61.5 154.7 62.2 156 62.2C156.8 62.2 157.3 62.1 157.8 61.9V66C157.2 66.2 156.1 66.4 154.8 66.4C150.7 66.4 148.8 64.5 148.8 60.7V51.2H146.6V47.3H148.8V43.8L154.1 41.6ZM177.5 66.1H172.3V63.3C171.4 65.1 169.6 66.5 166.8 66.5C163.4 66.5 160.9 64.4 160.9 60V47.3H166.2V59.3C166.2 61.5 167.1 62.5 168.9 62.5C170.7 62.5 172.2 61.3 172.2 59V47.3H177.5V66.1ZM181.4 47.3H186.7V50.8C187.8 48.3 189.6 47.1 192.4 47.1V52.3C188.8 52.3 186.7 53.4 186.7 56.5V66.2H181.4V47.3ZM203.1 66.5C197.7 66.5 194 63.3 194 57V56.6C194 50.3 197.9 46.8 203 46.8C207.7 46.8 211.6 49.4 211.6 55.7V58H199.4C199.6 61.4 201.1 62.7 203.3 62.7C205.3 62.7 206.4 61.6 206.8 60.3H211.7C210.9 63.8 208 66.5 203.1 66.5ZM199.3 54.5H206.4C206.3 51.7 205 50.5 202.9 50.5C201.3 50.6 199.8 51.5 199.3 54.5Z" fill="white"/>
</svg>