<svg xmlns:xlink="http://www.w3.org/1999/xlink"  xmlns="http://www.w3.org/2000/svg" width="260" height="90" viewBox="0 0 260 90" fill="none">
<path d="M65.8442 64.1544V25.7545H72.1961V38.1863H91.6904V57.7907H104.127V64.1542L65.8442 64.1544Z" fill="white"/>
<path d="M141.706 64.1735H113.444V25.7876H141.592C139.978 27.7469 138.323 29.7982 136.601 31.7928C136.379 32.05 135.815 32.0978 135.408 32.0995C130.733 32.1199 126.058 32.1125 121.384 32.1127C120.992 32.1127 120.601 32.1127 120.149 32.1127V41.7212H132.891V48.1119H120.189V57.7885C120.538 57.805 120.923 57.839 121.307 57.8392C126.019 57.8429 130.73 57.8552 135.441 57.8276C136.171 57.8234 136.597 58.0624 137.059 58.6465C138.543 60.5229 140.131 62.3164 141.706 64.174V64.1735Z" fill="white"/>
<path d="M166.905 28.4757C166.157 30.3751 165.442 32.1932 164.684 34.1198C164.441 33.9768 164.115 33.7793 163.784 33.5903C160.889 31.9386 157.807 31.0548 154.45 31.4418C149.943 31.9616 146.709 34.3605 144.752 38.3745C142.648 42.6899 142.641 47.1188 144.684 51.4595C147.695 57.8567 154.88 60.3536 161.47 57.3794C163.943 56.2638 166.002 54.6045 167.775 52.5737C167.986 52.3321 168.199 52.092 168.241 52.0438C169.678 53.5244 171.087 54.9761 172.63 56.5649C169.951 60.0364 166.176 62.7093 161.529 64.0749C156.078 65.6767 150.806 65.1154 145.883 62.2476C136.17 56.5877 133.339 42.8668 139.872 33.3164C146.49 23.6406 159.415 23.0105 166.904 28.4752L166.905 28.4757Z" fill="white"/>
<path d="M171.838 62.1585C173.147 60.7656 174.368 59.4229 175.653 58.1451C175.848 57.9521 176.375 57.9554 176.696 58.0479C179.296 58.796 181.886 58.9089 184.439 57.9236C186.551 57.108 187.517 55.4905 187.254 53.4045C187.082 52.0383 186.369 50.9732 185.184 50.356C183.703 49.584 182.159 48.9115 180.594 48.3197C177.616 47.193 174.649 46.0583 172.179 43.971C167.06 39.6461 167.07 32.3881 172.188 28.0597C174.08 26.4596 176.273 25.4966 178.713 25.1873C184.688 24.4295 189.479 26.6633 193.361 30.9965C191.88 32.4227 190.454 33.7961 189.031 35.1665C188.177 34.5329 187.15 33.6523 186.012 32.9531C183.854 31.6266 181.503 31.0489 178.989 31.7226C178.265 31.9165 177.537 32.2587 176.933 32.6996C174.54 34.4478 174.52 37.7018 176.989 39.3405C178.37 40.2568 179.976 40.8417 181.496 41.5418C184.042 42.7144 186.732 43.6414 189.126 45.0657C193.181 47.478 194.788 51.5071 193.933 56.1323C193.398 59.0333 191.812 61.2815 189.265 62.6872C183.934 65.63 178.483 65.7337 173.022 62.9591C172.73 62.8108 172.46 62.6183 172.186 62.4379C172.068 62.3596 171.963 62.2598 171.838 62.159V62.1585Z" fill="white"/>
<path d="M104.172 51.6553H97.8463V32.1451H78.353V25.7545H104.172V51.6553Z" fill="white"/>
</svg>