<svg xmlns:xlink="http://www.w3.org/1999/xlink"  xmlns="http://www.w3.org/2000/svg" width="260" height="90" viewBox="0 0 260 90" fill="none">
<g clip-path="url(#clip0_1059_56)">
<path d="M64.7056 54.5126L74.5325 64.5053C74.5733 64.5462 74.6218 64.5786 74.6753 64.6006C74.7287 64.6225 74.7859 64.6337 74.8437 64.6334H87.1307C87.2174 64.6344 87.3025 64.6092 87.3746 64.5609C87.4467 64.5127 87.5024 64.4437 87.5345 64.3631C87.5677 64.2824 87.5765 64.1937 87.5601 64.1081C87.5436 64.0224 87.5025 63.9433 87.4418 63.8807L71.4604 47.6415L81.2858 37.6488C81.3472 37.5871 81.389 37.5085 81.4058 37.4231C81.4226 37.3376 81.4136 37.2491 81.38 37.1687C81.3582 37.1154 81.3262 37.0668 81.2858 37.0257L75.1454 30.7793C75.0848 30.7181 75.0075 30.6763 74.9231 30.6592C74.8387 30.6422 74.7512 30.6506 74.6716 30.6834C74.6188 30.7058 74.571 30.7384 74.531 30.7793L48.1247 57.6342C48.0612 57.6965 48.018 57.7764 48.0006 57.8636C47.9832 57.9507 47.9925 58.0411 48.0273 58.1229C48.05 58.1772 48.083 58.2259 48.1247 58.2675L54.2666 64.5124C54.3271 64.5737 54.4045 64.6155 54.4889 64.6326C54.5733 64.6497 54.6608 64.6412 54.7404 64.6082C54.7932 64.5859 54.841 64.5533 54.881 64.5124L64.7064 54.5118L64.7056 54.5126Z" fill="#0086EA"/>
<path d="M64.1053 20.7725L54.573 30.4682L45.036 20.7717C44.9954 20.7306 44.9469 20.698 44.8935 20.6759C44.84 20.6538 44.7827 20.6425 44.7249 20.6429H32.4379C32.3506 20.6414 32.265 20.6665 32.1924 20.715C32.1199 20.7634 32.0638 20.8328 32.0317 20.914C31.9985 20.9949 31.9897 21.0838 32.0065 21.1697C32.0232 21.2556 32.0648 21.3346 32.126 21.3972L47.8182 37.3377L44.4397 40.7729L24.7772 20.7733C24.7363 20.7319 24.6876 20.6991 24.6339 20.6767C24.5802 20.6543 24.5226 20.6428 24.4645 20.6429H12.1869C12.1001 20.6423 12.0152 20.668 11.9433 20.7165C11.8714 20.765 11.8158 20.8341 11.7838 20.9147C11.7508 20.9954 11.7419 21.084 11.7582 21.1696C11.7745 21.2552 11.8154 21.3343 11.8757 21.3972L44.134 54.2007C44.1742 54.2426 44.2223 54.276 44.2757 54.299C44.329 54.3219 44.3863 54.334 44.4444 54.3343C44.5026 54.3344 44.5602 54.3226 44.6137 54.2996C44.6672 54.2766 44.7155 54.243 44.7555 54.2007L77.0036 21.3972C77.0636 21.3348 77.1041 21.2563 77.1203 21.1713C77.1364 21.0863 77.1274 20.9984 77.0944 20.9184C77.0614 20.8384 77.0058 20.7697 76.9344 20.7208C76.8631 20.6719 76.779 20.6448 76.6924 20.6429H64.4039C64.3461 20.6425 64.2888 20.6537 64.2355 20.676C64.1821 20.6983 64.1339 20.7311 64.0935 20.7725M84.3697 20.7725L78.5224 26.7204C78.4401 26.8033 78.3941 26.9155 78.3943 27.0323C78.3944 27.1493 78.4404 27.2616 78.5224 27.345L84.6643 33.5899C84.7245 33.6509 84.8015 33.6926 84.8854 33.7096C84.9694 33.7267 85.0565 33.7184 85.1357 33.6857C85.1888 33.6635 85.2369 33.6309 85.2772 33.5899L97.2672 21.3972C97.3126 21.3504 97.3473 21.2943 97.3687 21.2328C97.3902 21.1712 97.3979 21.1057 97.3913 21.0408C97.3847 20.976 97.364 20.9133 97.3306 20.8574C97.2972 20.8014 97.252 20.7534 97.198 20.7167C97.1265 20.6685 97.0422 20.6428 96.956 20.6429H84.6682C84.5519 20.6429 84.4404 20.69 84.3579 20.7725" fill="#EE282A"/>
</g>
<g clip-path="url(#clip1_1059_56)">
<path d="M112.672 48.0775H107.154V44.6367H122.189V48.0775H116.671V63.9167H112.672V48.0775Z" fill="#EFEFEF"/>
<path d="M124.031 55.6767H129.975C129.868 54.1842 128.828 52.9829 127.042 52.9829C125.362 52.9829 124.351 53.8108 124.031 55.6767ZM133.707 59.3572C133.174 62.2641 130.614 64.1301 127.308 64.1301C122.752 64.1301 120.404 60.5507 120.404 57.1707C120.404 53.7578 122.484 50.2642 127.042 50.2642C131.787 50.2642 133.679 53.7578 133.679 56.8236C133.679 57.331 133.654 57.7293 133.626 58.0235H123.981C124.247 59.9174 125.446 61.0892 127.312 61.0892C128.805 61.0892 129.791 60.5025 130.084 59.3572H133.707Z" fill="#EFEFEF"/>
<path d="M135.703 57.1969C135.703 53.2768 138.475 50.2625 142.634 50.2625C146.153 50.2625 148.952 52.396 149.191 55.5162H145.457C145.244 54.3163 144.098 53.4371 142.738 53.4371C140.739 53.4371 139.566 55.0104 139.566 57.1969C139.566 59.3834 140.764 60.9318 142.791 60.9318C144.151 60.9318 145.244 60.1071 145.51 58.9088H149.295C148.899 61.8827 146.126 64.1298 142.635 64.1298C138.477 64.1298 135.705 61.1154 135.705 57.1969" fill="#EFEFEF"/>
<path d="M151.294 44.6367H155V52.3431C155.778 51.0375 157.239 50.264 159.104 50.264C162.116 50.264 164.082 52.4427 164.082 55.5427V63.9167H160.384V56.3706C160.384 54.7428 159.317 53.5694 157.771 53.5694C156.147 53.5694 155 54.8144 155 56.5558V63.9152H151.294V44.6367Z" fill="#EFEFEF"/>
<path d="M166.79 50.4772H170.523V52.3447C171.27 51.0375 172.762 50.2656 174.602 50.2656C177.641 50.2656 179.615 52.4443 179.615 55.5459V63.9183H175.881V56.3706C175.881 54.7429 174.842 53.5695 173.296 53.5695C171.67 53.5695 170.523 54.8238 170.523 56.5558V63.9167H166.79V50.4772Z" fill="#EFEFEF"/>
<path d="M191.965 57.1969C191.965 54.956 190.606 53.4371 188.607 53.4371C186.608 53.4371 185.25 54.956 185.25 57.1969C185.25 59.4099 186.608 60.9318 188.607 60.9318C190.606 60.9318 191.965 59.413 191.965 57.1969ZM181.516 57.1969C181.516 53.1959 184.472 50.2625 188.607 50.2625C192.742 50.2625 195.697 53.1959 195.697 57.1969C195.697 61.1979 192.742 64.1298 188.607 64.1298C184.472 64.1298 181.516 61.1964 181.516 57.1969Z" fill="#EFEFEF"/>
<path d="M201.542 44.6367H197.837V63.9167H201.542V44.6367Z" fill="#EFEFEF"/>
<path d="M214.104 57.1969C214.104 54.956 212.742 53.4371 210.745 53.4371C208.747 53.4371 207.384 54.956 207.384 57.1969C207.384 59.4099 208.746 60.9318 210.745 60.9318C212.743 60.9318 214.104 59.413 214.104 57.1969ZM203.654 57.1969C203.654 53.1959 206.609 50.2625 210.745 50.2625C214.88 50.2625 217.836 53.1959 217.836 57.1969C217.836 61.1979 214.88 64.1298 210.745 64.1298C206.609 64.1298 203.654 61.1964 203.654 57.1969Z" fill="#EFEFEF"/>
<path d="M229.511 57.1971C229.511 54.9297 228.206 53.4373 226.207 53.4373C224.234 53.4373 222.927 54.9297 222.927 57.1971C222.927 59.4646 224.234 60.932 226.207 60.932C228.206 60.932 229.511 59.4646 229.511 57.1971ZM233.004 50.4774V64.7167C233.004 67.518 230.982 69.3574 227.939 69.3574H221.168V66.4504H227.353C228.474 66.4504 229.298 65.5696 229.298 64.3168V62.5567C228.606 63.5434 227.193 64.1301 225.62 64.1301C221.649 64.1301 219.276 61.3834 219.276 57.1971C219.276 53.0109 221.649 50.2642 225.567 50.2642C227.193 50.2642 228.523 50.8773 229.273 51.8095V50.4774H233.004Z" fill="#EFEFEF"/>
<path d="M243.885 50.4771L241.084 59.1436L238.26 50.4771H234.474L239.353 63.8092L237.38 69.3556H240.924L242.819 63.8621L247.696 50.4771H243.885Z" fill="#EFEFEF"/>
<path d="M106.036 20.6475H110.087L113.66 34.0278L117.472 20.6475H120.857L124.695 34.0278L128.293 20.6475H132.348L126.829 39.9228H122.883L119.178 26.8879L115.473 39.9228H111.58L106.036 20.6475Z" fill="#EFEFEF"/>
<path d="M185.069 20.6475H189.119L192.692 34.0278L196.504 20.6475H199.888L203.728 34.0278L207.327 20.6475H211.38L205.861 39.9228H201.916L198.212 26.8879L194.505 39.9228H190.612L185.069 20.6475Z" fill="#EFEFEF"/>
<path d="M141.915 33.2017C141.915 30.9622 140.554 29.4434 138.556 29.4434C136.559 29.4434 135.196 30.9622 135.196 33.2017C135.196 35.4161 136.557 36.9366 138.556 36.9366C140.555 36.9366 141.915 35.4177 141.915 33.2017ZM131.465 33.2017C131.465 29.2021 134.421 26.2703 138.556 26.2703C142.691 26.2703 145.646 29.2021 145.646 33.2017C145.646 37.2011 142.69 40.1361 138.556 40.1361C134.423 40.1361 131.465 37.2027 131.465 33.2017Z" fill="#EFEFEF"/>
<path d="M154.045 29.5755C152.206 29.5755 151.38 31.0959 151.38 33.3897V39.9259H147.646V26.4817H151.38V28.7227C152.1 27.0419 153.113 26.4817 154.739 26.4817H156.259V29.5755H154.045Z" fill="#EFEFEF"/>
<path d="M161.526 20.6428H157.821V39.9228H161.526V20.6428Z" fill="#EFEFEF"/>
<path d="M173.957 33.2015C173.957 30.9357 172.65 29.4432 170.679 29.4432C168.708 29.4432 167.398 30.9357 167.398 33.2015C167.398 35.4425 168.706 36.9364 170.679 36.9364C172.651 36.9364 173.957 35.444 173.957 33.2015ZM163.72 33.2015C163.72 29.0152 166.121 26.2701 170.011 26.2701C171.692 26.2701 172.997 26.9097 173.745 27.8948V20.6428H177.452V39.9228H173.75V38.4553C173.005 39.4949 171.617 40.136 170.072 40.136C166.128 40.136 163.728 37.3893 163.728 33.2015" fill="#EFEFEF"/>
<path d="M213.066 39.9228H216.799V26.4833H213.066V39.9228ZM212.958 24.5629H216.902V20.6428H212.953L212.958 24.5629Z" fill="#EFEFEF"/>
<path d="M229.058 33.2015C229.058 30.9357 227.752 29.4432 225.779 29.4432C223.806 29.4432 222.5 30.9357 222.5 33.2015C222.5 35.4425 223.806 36.9364 225.779 36.9364C227.752 36.9364 229.058 35.444 229.058 33.2015ZM218.822 33.2015C218.822 29.0152 221.221 26.2701 225.112 26.2701C226.791 26.2701 228.099 26.9097 228.845 27.8948V20.6428H232.555V39.9228H228.848V38.4553C228.104 39.4949 226.715 40.136 225.17 40.136C221.225 40.136 218.827 37.3893 218.827 33.2015" fill="#EFEFEF"/>
<path d="M238.281 31.6828H244.224C244.116 30.1888 243.077 28.989 241.291 28.989C239.611 28.989 238.598 29.8169 238.279 31.6828H238.281ZM247.958 35.3632C247.423 38.2687 244.864 40.1361 241.559 40.1361C237 40.1361 234.655 36.5568 234.655 33.1752C234.655 29.7624 236.735 26.2703 241.292 26.2703C246.037 26.2703 247.929 29.7624 247.929 32.8297C247.929 33.3355 247.904 33.7354 247.877 34.0296H238.231C238.497 35.9219 239.697 37.0953 241.562 37.0953C243.056 37.0953 244.042 36.5086 244.334 35.3632H247.958Z" fill="#EFEFEF"/>
</g>
<defs>
<clipPath id="clip0_1059_56">
<rect width="85.6429" height="44" fill="white" transform="translate(11.75 20.6428)"/>
</clipPath>
<clipPath id="clip1_1059_56">
<rect width="142.214" height="48.7143" fill="white" transform="translate(106.036 20.6428)"/>
</clipPath>
</defs>
</svg>