<svg xmlns="http://www.w3.org/2000/svg" viewBox="0 0 398.3 138.8">
  <style>
    path { shape-rendering: geometricPrecision; }
  </style>
  <path d="M311.5,34.7c-4.7-3-9.6-7.9-7.3-13.8,2.2-5.8,8.1-9,14.2-8.8,3.9,.2,7.9,1.5,11.3,3.7,2.4,1.5,4.6,3.4,6.4,5.6l1.2,1.4V3.8l-.5,.6c-.5,.5-1,1-1.6,1.5-1.6,1.3-3.8,.4-5.6-.4-13.1-5.4-29.2-1.6-35.2,11.9-4.2,9.4,1.1,19.5,9.3,24.8,11.1,7.1,27.2,18.2,29,26,1.4,6.1,.4,12.6-4.1,16.8-4.2,4.4-8.6,7.2-15.2,7.7-4.4,.3-8.5,0-12.7-1-2.9-.9-5.2-2.8-7.8-4.1h-.2v16l.7-.6c1.2-1,2.8-1.6,4.4-1.7,3.9-.2,7.9,.9,11.8,.9,8.6,.3,19.5-2.8,23.5-6.3,0,0,3.1-2.3,4.8-4.4,.6-.5,3-3.8,4.3-6.4,1.7-4.1,2.5-8.8,2.4-13.4-.3-15.4-18.8-28-33-37h-.1Z" fill="#fff"/>
  <path d="M375.4,95.9V14.1h14.5c1.7,0,3.5,.4,4.6,1.8,.5,.7,.9,1.3,1.3,1.9,.1,.2,.2,.3,.3,.4V4.3h-53.9v14.1c0-.1,.2-.3,.3-.4,.4-.6,.8-1.2,1.3-1.9,1.1-1.4,2.9-1.8,4.6-1.8h14.5V96c0,1.7-1.6,3.3-2.8,4.9l-1.1,1.3h20.3l-1.1-1.3c-1.3-1.6-2.8-3.2-2.8-4.9v-.1Z" fill="#fff"/>
  <path d="M213.6,5.8c1.8,1.9,2,4.7,1,7.1l-27.8,65.4c-10.5-22.6-20.4-44.6-30.6-67.4-1-2.1-1.2-3.8,.7-5.3l1.7-1.3h-19.8l1.2,.7c1.9,1.2,3.5,2.8,4.6,4.7,.9,1.5,1.6,3.2,2.3,4.7l41.1,89.7c7.2-16.9,14.6-33.6,21.7-50.6l15.3-35.8,1-2.3c1.2-2.8,2.7-6.6,4.6-7.9,1-.7,3.1-1.7,3.5-1.7s1.2,1.2,1.7,2c.6,1,.6,2.8,.6,4.3V92.8c0,2-.7,3.9-2,5.5-1.2,1.5-2.7,3.1-3.2,3.8h58v-15c-.5,.9-1.6,3.2-2.6,4.1-1.3,1.1-3.6,1.1-5.5,1.1h-32.1V58.3h24.1c.7,0,2.1,.5,3.2,1.5l1.9,1.8v-17.1l-1.3,1.5c-.7,.8-1.7,1.7-2.8,1.7h-25.1V14.1h30.9c2.8,0,6.1-.2,7.7,2.4,.2,.4,.5,.8,.7,1.2,.2,.4,.3,.6,.5,.9l.5,.8V4.3h-76.8l1.3,1.5h-.2Z" fill="#fff"/>
  <path d="M186.8,135.3L126.2,58.9l.5-.2c2.9-1.4,5.5-3.5,8.2-5.7,11.5-9.7,15-26.9,5.1-38.9-2.8-3.4-6.5-6.2-10.5-8.2-6.7-3.3-14.3-4-21.6-2.8-2.4,.3-4.8,.9-7.2,1.3-3.3,.5-6.6,.9-9.8,.4-1.5-.2-2.9-.5-4.3-.7l-3.6-.7c2.1,1.6,4.7,4.4,4.7,7.2l.5,70.6L49.8,0,10.7,89.9c-1.9,4.3-4,9.3-8.3,11.1l-2.4,1H23.4c-1.3-.8-2.4-1.9-3.1-3.1-1.1-2.2,0-4.8,1-7.1l7-16.5h45.6l4.1,9.5,2.9,6.9c.9,2.2,2.1,4.9,1,7.1-.7,1.3-1.8,2.3-3.1,3.2h23.7c-1.8-2.2-3.6-4.4-3.5-7.9V16.3c0-1.6-.2-4.4,2-4.8,4.9-1,11.3-1.1,15.9-.3,4.1,.7,6.4,2.1,9.2,4.5,2.7,2.4,4.7,4.9,6.1,8,.9,2.7,1.6,5.1,1.7,8.1,.1,4.3-1.5,7.4-3.4,10.9-2.4,4.3-6.2,7.3-10.2,9.5-3.1,1.2-6.8,2.5-9.2,2.8l65.5,83.8h13.8l-.3-1.2c-1.2-.5-2.4-1.1-3.4-2.2l.1-.1ZM31.8,65.4L49.8,23.8l18.8,41.6H31.8Z" fill="#fff"/>
  <path d="M394.3,33.1c0-1.8-1.2-2.3-3.2-2.3h-2.9v7.7h1.7v-3.3h.8l1.8,3.3h2l-2-3.4c1,0,1.9-.6,1.9-2h-.1Zm-3,.8h-1.5v-1.9h1.2c.6,0,1.5,0,1.5,.9s-.4,1-1.2,1Z" fill="#fff"/>
  <path d="M391.1,27.5c-3.8,0-7.3,2.6-7.3,7.2s3.4,7.2,7.3,7.2,7.2-2.6,7.2-7.2-3.4-7.2-7.2-7.2Zm0,12.7h0c-2.9,0-5.2-2.2-5.2-5.5s2.3-5.5,5.2-5.5,5.2,2.2,5.2,5.5-2.4,5.5-5.2,5.5Z" fill="#fff"/>
</svg>