<svg xmlns="http://www.w3.org/2000/svg" fill="white" viewBox="0 0 72 34.900001525878906"><g xmlns="http://www.w3.org/2000/svg" id="Layer_1">
      <path d="M53.3,14.7c-2.5.4-3.8,2.3-3.8,5.6s1.7,5.5,4.4,5.5,2.3-.4,4.7-1.6v2.7c-2.8,1.3-4.5,1.7-6.8,1.7s-4.2-.7-5.6-2.1c-1.4-1.4-2.2-3.4-2.2-5.5,0-4.7,3.5-8,8.6-8s5.7,1.6,5.7,3.8-1.1,2.5-2.7,2.5-1.5-.2-2.4-.7v-4ZM40.8,21c2.3-2.9,3.1-4,3.1-5.4s-1.1-2.5-2.6-2.5-1.7.4-2.1.9v5.8l-3.7,5v-11.3h-3.5l-5.9,9.8v-9.8h-2l-5.3,1.3v1.4l2.9.3v12h3.8l5.6-9.3v9.3h4.1s5.7-7.3,5.7-7.3ZM7.4,16.5c.9-.1,1.3-.2,1.7-.2,2.5,0,3.8,1.6,3.8,4.7s-1.6,5.5-4.7,5.5-.4,0-.8,0c0,0,0-10,0-10ZM7.4,28.2c1,.1,1.9.1,2.5.1,5,0,8.2-3.2,8.2-8s-2.4-7.1-5.6-7.1-2.4.3-5.1,1.9v-2h-1.5L0,14.9v1.4h2.4v16.7l-2.2.5v1.4h9.6v-1.4l-2.4-.5v-4.8s0,0,0,0Z"></path>
      <path class="cls-1" d="M50.6,9h-16l2.7-4.5h16l-2.7,4.5ZM72,0h-16l-2.7,4.5h16s2.7-4.5,2.7-4.5Z"></path>
    </g></svg>